<?xml version="1.0" encoding="UTF-8" standalone="no"?>
<svg
   xmlns:dc="http://purl.org/dc/elements/1.1/"
   xmlns:cc="http://creativecommons.org/ns#"
   xmlns:rdf="http://www.w3.org/1999/02/22-rdf-syntax-ns#"
   xmlns:svg="http://www.w3.org/2000/svg"
   xmlns="http://www.w3.org/2000/svg"
   xmlns:xlink="http://www.w3.org/1999/xlink"
   xmlns:sodipodi="http://sodipodi.sourceforge.net/DTD/sodipodi-0.dtd"
   xmlns:inkscape="http://www.inkscape.org/namespaces/inkscape"
   width="256pt"
   height="256pt"
   viewBox="0 0 256 256"
   version="1.1"
   id="svg2"
   inkscape:version="0.48.2 r9819"
   sodipodi:docname="icon-ft.svg"
   inkscape:export-filename="/Users/jocke/code/android/PactrackDroid/market-stuff/HD_icon-ft.png"
   inkscape:export-xdpi="144"
   inkscape:export-ydpi="144">
  <metadata
     id="metadata82">
    <rdf:RDF>
      <cc:Work
         rdf:about="">
        <dc:format>image/svg+xml</dc:format>
        <dc:type
           rdf:resource="http://purl.org/dc/dcmitype/StillImage" />
        <dc:title></dc:title>
      </cc:Work>
    </rdf:RDF>
  </metadata>
  <defs
     id="defs80">
    <linearGradient
       id="linearGradient3849">
      <stop
         style="stop-color:#b7b7bb;stop-opacity:1;"
         offset="0"
         id="stop3851" />
      <stop
         style="stop-color:#ffffff;stop-opacity:1;"
         offset="1"
         id="stop3853" />
    </linearGradient>
    <linearGradient
       id="linearGradient3841">
      <stop
         style="stop-color:#9f754f;stop-opacity:1;"
         offset="0"
         id="stop3843" />
      <stop
         style="stop-color:#c5a68b;stop-opacity:1;"
         offset="1"
         id="stop3845" />
    </linearGradient>
    <linearGradient
       id="linearGradient3831">
      <stop
         style="stop-color:#c89d7a;stop-opacity:1;"
         offset="0"
         id="stop3833" />
      <stop
         style="stop-color:#ecddd1;stop-opacity:1;"
         offset="1"
         id="stop3835" />
    </linearGradient>
    <linearGradient
       inkscape:collect="always"
       xlink:href="#linearGradient3831"
       id="linearGradient3837"
       x1="116.63105"
       y1="226.31815"
       x2="207.73091"
       y2="11.230796"
       gradientUnits="userSpaceOnUse" />
    <linearGradient
       inkscape:collect="always"
       xlink:href="#linearGradient3841"
       id="linearGradient3847"
       x1="149.21327"
       y1="280.43134"
       x2="171.36824"
       y2="15.67607"
       gradientUnits="userSpaceOnUse" />
    <linearGradient
       inkscape:collect="always"
       xlink:href="#linearGradient3849"
       id="linearGradient3855"
       x1="82.859962"
       y1="234.51918"
       x2="174.11179"
       y2="120.87225"
       gradientUnits="userSpaceOnUse" />
  </defs>
  <sodipodi:namedview
     pagecolor="#ffffff"
     bordercolor="#666666"
     borderopacity="1"
     objecttolerance="10"
     gridtolerance="10"
     guidetolerance="10"
     inkscape:pageopacity="0"
     inkscape:pageshadow="2"
     inkscape:window-width="1680"
     inkscape:window-height="936"
     id="namedview78"
     showgrid="false"
     inkscape:zoom="1"
     inkscape:cx="160"
     inkscape:cy="310.5"
     inkscape:window-x="0"
     inkscape:window-y="0"
     inkscape:window-maximized="1"
     inkscape:current-layer="svg2" />
  <path
     d=" M 82.01 7.23 C 97.35 6.53 112.72 6.22 128.08 6.32 C 127.82 8.21 126.34 8.76 124.60 8.87 C 130.27 9.98 136.10 9.12 141.84 9.33 C 144.63 9.51 147.42 9.77 150.22 9.97 C 124.47 9.92 98.71 10.21 72.96 9.77 C 51.19 9.46 29.41 9.83 7.65 9.45 C 9.51 8.23 11.83 8.75 13.92 8.60 C 22.63 8.42 31.35 8.63 40.02 7.82 C 54.02 7.55 68.02 7.44 82.01 7.23 Z"
     id="path6"
     fill="#9b7857" />
  <path
     d=" M 128.86 6.86 C 137.36 5.88 146.00 6.60 154.53 6.91 C 150.07 7.87 145.49 7.63 140.99 8.22 C 136.97 8.37 132.35 9.43 128.86 6.86 Z"
     id="path8"
     fill="#ad8764" />
  <path
     d=" M 154.53 6.91 C 159.00 6.27 163.53 6.86 168.03 6.82 C 183.67 7.62 199.33 7.39 214.98 7.81 C 224.32 8.65 233.70 8.35 243.06 8.60 C 244.14 8.55 245.19 8.85 246.12 9.39 C 230.07 9.76 214.01 9.49 197.96 9.61 C 182.04 9.52 166.13 10.14 150.22 9.97 C 147.42 9.77 144.63 9.51 141.84 9.33 L 140.99 8.22 C 145.49 7.63 150.07 7.87 154.53 6.91 Z"
     id="path10"
     fill="#947252" />
  <path
     d=" M 7.65 9.45 C 29.41 9.83 51.19 9.46 72.96 9.77 C 98.71 10.21 124.47 9.92 150.22 9.97 C 166.13 10.14 182.04 9.52 197.96 9.61 C 214.01 9.49 230.07 9.76 246.12 9.39 L 245.91 11.08 C 210.64 11.05 175.37 11.09 140.10 11.11 C 132.13 11.10 124.16 11.15 116.19 11.07 C 85.46 11.15 54.73 11.02 24.00 11.05 C 18.60 10.98 13.19 10.94 7.79 11.25 L 7.65 9.45 Z"
     id="path14"
     fill="#eaccb1" />
  <path
     d="M 19.875 13.75 C 16.496875 13.775 13.125 13.86875 9.75 14.0625 L 9.75 15.3125 C 9.8875 72.4375 9.7875 129.5625 9.9375 186.6875 C 9.7 198.8 9.79375 210.91875 9.96875 223.03125 C 9.74375 244.43125 9.7375 265.8375 10 287.25 C 9.65 294.85 9.99375 302.48125 9.71875 310.09375 L 10.8125 310.03125 C 38.4375 309.51875 66.08125 309.94375 93.71875 309.78125 C 164.75625 309.93125 235.775 309.625 306.8125 309.9375 L 307.28125 309.1875 C 307.33125 288.475 307.5625 267.74375 307.25 247.03125 C 307.4 207.50625 307.7 167.9625 307.25 128.4375 C 307.3625 90.2375 307.4 52.04375 307.375 13.84375 C 263.2875 13.80625 219.2125 13.85 175.125 13.875 C 174.4375 23.8125 174.81875 33.78125 175.21875 43.71875 C 175.30625 61.21875 175.3 78.7375 175.4375 96.25 C 206.6875 96.1875 237.95625 96.38125 269.21875 96.15625 C 269.38125 96.63125 269.73125 97.5875 269.90625 98.0625 C 269.70625 121.0875 269.4 144.13125 269.8125 167.15625 C 270.1 169.79375 270.425 172.4 270.5 175.0625 C 270.6 194.2625 270.4125 213.4875 271.125 232.6875 C 271.05 237.1625 270.8125 241.65 270.625 246.125 C 267.6 246.8375 264.51875 247.5625 261.40625 247.6875 C 246.23125 247.45 231.05 247.50625 215.875 247.65625 C 202.3 247.20625 188.66875 246.9875 175.09375 247.5625 C 173.90625 258.95 175.00625 270.41875 174.65625 281.84375 C 165.18125 283.06875 155.675 282.7875 146.1875 282.0625 C 144.2875 270.6 146.7 258.9125 145 247.4375 C 113.3875 247.975 81.75 247.19375 50.125 247.65625 C 45.8 247.94375 41.4875 247.5875 37.25 246.6875 C 40.775 246.0625 44.3 245.4875 47.875 245.25 C 44.0375 245.175 40.2125 245.0875 36.375 245.0625 C 36.55 195.95 36.15 146.83125 35.875 97.71875 C 36.0125 97.35625 36.3 96.6125 36.4375 96.25 C 72.4875 96.225 108.54375 96.2625 144.59375 96.25 C 144.91875 68.775 145.6375 41.33125 145.25 13.84375 C 106.8375 13.94375 68.4125 13.775 30 13.8125 C 26.625 13.76875 23.253125 13.725 19.875 13.75 z "
     transform="scale(0.8,0.8)"
     id="path18"
     style="fill:url(#linearGradient3837);fill-opacity:1" />
  <path
     d="m 145.25,12.602866 c 0.3875,27.4875 -0.33125,56.172134 -0.65625,83.647134 10.2875,0.0125 20.55625,0 30.84375,0 -0.1375,-17.5125 -0.13125,-35.03125 -0.21875,-52.53125 0,-9.937967 -0.0937,-21.024945 -0.0937,-30.964283 -9.9625,-0.0125 -19.9125,-0.0516 -29.875,-0.151601 z M 269.8125,167.15625 c -0.1375,26.05 -0.225,52.10625 -0.0625,78.15625 -36.5625,-0.2 -73.1375,0.25625 -109.6875,-0.28125 -37.3875,0.4375 -74.8,0.15625 -112.1875,0.21875 -3.575,0.2375 -7.1,0.8125 -10.625,1.4375 4.2375,0.9 8.55,1.25625 12.875,0.96875 31.625,-0.4625 63.2625,0.31875 94.875,-0.21875 1.7,11.475 -0.7125,23.1625 1.1875,34.625 9.4875,0.725 18.99375,1.00625 28.46875,-0.21875 0.35,-11.425 -0.75,-22.89375 0.4375,-34.28125 13.575,-0.575 27.20625,-0.35625 40.78125,0.0937 15.175,-0.15 30.35625,-0.20625 45.53125,0.0312 3.1125,-0.125 6.19375,-0.85 9.21875,-1.5625 0.1875,-4.475 0.425,-8.9625 0.5,-13.4375 -0.7125,-19.2 -0.525,-38.425 -0.625,-57.625 -0.075,-2.6625 -0.4,-5.26875 -0.6875,-7.90625 z"
     transform="scale(0.8,0.8)"
     id="path20"
     style="fill:url(#linearGradient3847);fill-opacity:1"
     inkscape:connector-curvature="0"
     sodipodi:nodetypes="cccccccccccccccccccccccc" />
  <path
     d=" M 29.15 77.01 C 57.99 76.99 86.83 77.01 115.67 77.00 C 123.90 77.01 132.12 77.00 140.35 77.00 C 165.35 76.95 190.36 77.10 215.37 76.92 C 215.50 77.30 215.78 78.06 215.92 78.44 C 215.76 96.86 215.52 115.30 215.85 133.72 C 215.74 154.56 215.66 175.41 215.79 196.25 C 186.54 196.09 157.28 196.45 128.04 196.02 C 98.13 196.37 68.21 196.16 38.30 196.21 C 35.23 196.15 32.16 196.06 29.09 196.04 C 29.23 156.75 28.92 117.46 28.70 78.17 C 28.81 77.88 29.04 77.30 29.15 77.01 Z"
     id="path24"
     fill="#d3bda9" />
  <path
     d=" M 35.93 79.24 C 49.29 79.04 62.71 79.87 76.04 78.45 C 89.45 78.29 102.86 78.44 116.27 78.46 C 116.20 79.52 116.12 80.59 116.05 81.65 C 88.61 81.63 61.16 81.61 33.71 81.64 L 33.71 83.02 C 33.69 99.75 34.01 116.49 33.62 133.22 C 32.53 122.50 33.10 111.70 32.48 100.95 C 32.27 106.49 32.56 112.06 31.69 117.56 C 30.97 114.43 30.85 111.22 30.98 108.03 C 31.26 98.54 31.15 89.04 31.28 79.55 C 32.62 80.99 34.36 79.21 35.93 79.24 Z"
     id="path26"
     fill="#d2b79e" />
  <path
     d=" M 116.27 78.46 C 124.07 78.46 131.88 78.25 139.68 78.52 C 139.77 79.56 139.87 80.60 139.97 81.63 C 132.00 81.68 124.03 81.65 116.05 81.65 C 116.12 80.59 116.20 79.52 116.27 78.46 Z"
     id="path28"
     fill="#ba9f86" />
  <path
     d=" M 139.68 78.52 C 148.66 80.17 157.87 78.89 166.96 79.29 C 172.88 78.49 178.80 79.69 184.71 78.92 C 188.38 79.40 192.05 79.47 195.70 78.88 C 201.67 80.00 207.67 78.11 213.61 79.48 C 213.58 105.98 214.31 132.50 213.77 159.00 C 214.39 166.60 213.24 174.21 213.98 181.82 C 213.27 181.85 211.84 181.90 211.13 181.93 C 211.24 173.89 211.01 165.85 211.15 157.81 C 211.09 141.18 211.17 124.56 211.09 107.93 C 211.10 99.21 210.93 90.49 211.34 81.78 L 210.72 81.91 C 187.15 81.24 163.55 81.81 139.97 81.63 C 139.87 80.60 139.77 79.56 139.68 78.52 Z"
     id="path30"
     fill="#d0b59d" />
  <path
     d="M 219.1875 101.96875 C 204.44531 102.01406 189.70625 102.14375 174.96875 102.03125 C 165.00625 102.09375 155.0375 102.0625 145.0625 102.0625 C 110.7625 102.0375 76.4375 102.025 42.125 102.0625 L 42.125 103.78125 C 42.1 124.69375 42.51875 145.61875 42.03125 166.53125 C 42.11875 169.14375 42.23125 171.73125 42.28125 174.34375 C 41.93125 192.23125 42.125 210.1625 42.375 228.0625 C 42.1625 232.025 42.06875 235.99375 42.15625 239.96875 C 80.34375 239.24375 118.56875 240.025 156.78125 239.5625 L 155.9375 238.6875 C 149.225 231.6875 144.80625 222.9375 140.96875 214.125 C 138.60625 208.3375 137.73125 202.09375 137.21875 195.90625 C 136.15625 185.90625 137.84375 175.9 140.09375 166.1875 C 144.51875 154.5875 150.6 143.325 159.9375 134.9375 C 172.8375 123.075 189.675 114.1375 207.5625 114.375 C 218.0125 113.775 228.5875 115.2375 238.375 119 C 247.925 122.375 256.1625 128.49375 263.875 134.90625 C 263.8875 124.00625 263.675 113.10625 264.1875 102.21875 L 263.40625 102.375 C 248.675 101.95625 233.92969 101.92344 219.1875 101.96875 z "
     transform="scale(0.8,0.8)"
     id="path38"
     style="fill:url(#linearGradient3855);fill-opacity:1" />
  <path
     d=" M 127.96 107.95 C 138.28 98.46 151.74 91.31 166.05 91.50 C 174.41 91.02 182.86 92.19 190.69 95.20 C 198.33 97.90 204.92 102.80 211.09 107.93 C 211.17 124.56 211.09 141.18 211.15 157.81 C 207.95 161.33 205.06 165.11 202.13 168.85 C 202.04 168.35 201.85 167.35 201.75 166.85 C 205.96 158.84 208.52 149.40 206.27 140.42 C 204.94 140.82 203.61 141.21 202.29 141.61 C 203.67 152.51 200.13 163.75 192.22 171.46 C 193.39 163.70 192.22 154.59 185.35 149.73 C 180.96 145.60 174.63 144.78 168.87 145.43 C 158.29 147.29 150.54 159.21 153.59 169.61 C 154.12 171.56 154.95 173.42 155.63 175.32 L 155.39 175.57 C 151.39 171.77 148.42 167.02 146.47 161.87 C 145.68 160.32 146.09 158.61 146.29 156.98 C 140.47 158.33 134.75 160.04 128.98 161.57 C 131.02 164.72 132.74 168.07 134.98 171.08 C 138.34 175.33 142.63 178.76 147.22 181.59 L 147.70 181.86 C 143.17 184.01 139.64 187.63 135.49 190.34 C 132.00 191.28 128.32 190.83 124.74 190.95 C 119.37 185.35 115.84 178.35 112.77 171.30 C 110.88 166.67 110.18 161.67 109.77 156.72 C 108.92 148.72 110.28 140.72 112.08 132.95 C 115.62 123.67 120.49 114.66 127.96 107.95 Z"
     id="path42"
     fill="#9fb5dc" />
  <path
     d=" M 32.48 100.95 C 33.10 111.70 32.53 122.50 33.62 133.22 C 33.69 135.31 33.78 137.39 33.82 139.48 C 33.54 153.79 33.70 168.12 33.90 182.44 C 33.73 185.61 33.66 188.79 33.73 191.97 C 37.27 193.56 41.25 192.70 45.00 192.84 C 65.66 192.83 86.33 192.88 106.99 192.84 C 110.26 192.92 114.06 192.05 116.63 194.65 C 109.45 195.39 102.23 194.62 95.03 194.97 C 73.67 194.85 52.29 195.15 30.93 194.76 C 30.34 172.43 31.53 150.06 31.48 127.72 C 31.57 124.33 31.38 120.93 31.69 117.56 C 32.56 112.06 32.27 106.49 32.48 100.95 Z"
     id="path44"
     fill="#c1a891" />
  <path
     d=" M 157.51 109.84 C 159.13 111.65 160.54 113.64 161.69 115.78 C 168.97 114.35 179.18 115.02 182.25 123.04 C 180.79 123.28 179.35 123.51 177.90 123.74 C 175.73 120.03 172.13 117.38 167.76 117.06 C 169.98 119.69 173.00 121.69 174.15 125.10 C 172.63 125.13 170.80 126.32 169.43 125.50 C 167.41 122.40 165.74 117.94 161.31 118.04 C 163.04 120.90 164.36 123.99 165.30 127.20 C 163.76 128.19 161.99 128.65 160.19 128.87 C 159.30 125.60 159.06 122.20 158.56 118.86 C 154.86 121.17 155.56 126.32 155.81 130.07 C 154.28 130.43 152.74 130.74 151.20 131.01 C 151.15 127.50 152.03 124.10 153.17 120.80 C 149.17 123.32 147.41 127.89 147.32 132.45 C 145.96 132.62 144.60 132.80 143.24 132.97 C 142.65 124.78 150.37 119.21 157.44 117.23 C 157.41 114.76 157.42 112.30 157.51 109.84 Z"
     id="path50"
     fill="#f9e07e" />
  <path
     d=" M 179.74 124.19 C 180.46 124.44 181.92 124.93 182.65 125.18 C 182.74 128.92 182.15 132.65 181.43 136.32 C 171.18 138.88 160.91 141.47 150.82 144.62 C 148.39 141.98 146.11 139.16 144.47 135.95 C 143.79 133.79 146.03 133.78 147.28 134.67 C 148.60 135.48 149.71 136.58 150.86 137.62 C 150.05 138.45 147.92 140.48 150.05 141.04 C 152.34 142.29 153.85 139.80 155.21 138.40 C 154.38 138.18 152.74 137.74 151.92 137.53 C 152.26 135.28 152.93 133.11 153.81 131.01 C 155.79 131.91 157.80 133.12 158.86 135.10 C 158.55 136.22 158.10 137.29 157.50 138.30 C 159.96 139.46 162.76 138.60 163.86 136.01 C 159.80 136.35 160.63 132.36 162.11 130.16 C 163.26 127.85 165.40 130.56 166.70 131.38 C 168.62 132.51 166.82 134.28 166.29 135.67 C 167.63 137.34 170.01 136.21 171.62 135.56 C 171.68 135.12 171.79 134.23 171.85 133.78 C 167.74 132.92 170.91 128.84 170.84 126.25 C 173.33 127.06 175.63 128.57 176.83 130.99 C 176.33 131.50 175.33 132.52 174.83 133.03 C 175.42 133.39 176.59 134.11 177.17 134.48 C 178.71 133.76 180.22 132.90 181.28 131.54 C 180.47 131.28 178.84 130.77 178.02 130.51 C 178.62 128.41 179.21 126.31 179.74 124.19 Z"
     id="path54"
     fill="#f9df7f" />
  <path
     d=" M 202.29 141.61 C 203.61 141.21 204.94 140.82 206.27 140.42 C 208.52 149.40 205.96 158.84 201.75 166.85 C 197.81 173.13 192.48 178.60 185.93 182.16 C 185.27 182.10 183.95 181.96 183.28 181.90 C 185.60 179.97 187.79 177.75 188.72 174.80 C 189.49 174.66 190.27 174.53 191.05 174.39 C 189.53 173.28 187.99 172.17 186.47 171.07 C 189.68 163.13 185.13 152.30 176.34 150.60 C 170.96 149.02 164.72 150.80 161.48 155.50 C 157.35 159.59 157.48 166.04 159.36 171.15 C 158.14 172.57 156.91 173.96 155.63 175.32 C 154.95 173.42 154.12 171.56 153.59 169.61 C 150.54 159.21 158.29 147.29 168.87 145.43 C 174.63 144.78 180.96 145.60 185.35 149.73 C 192.22 154.59 193.39 163.70 192.22 171.46 C 200.13 163.75 203.67 152.51 202.29 141.61 Z"
     id="path58"
     fill="#f8df80" />
  <path
     d=" M 161.48 155.50 C 164.72 150.80 170.96 149.02 176.34 150.60 C 185.13 152.30 189.68 163.13 186.47 171.07 C 183.62 175.26 179.64 179.97 174.04 179.66 C 167.92 180.09 161.94 176.77 159.36 171.15 C 157.48 166.04 157.35 159.59 161.48 155.50 Z"
     id="path60"
     fill="#a0b6dc" />
  <path
     d=" M 128.98 161.57 C 134.75 160.04 140.47 158.33 146.29 156.98 C 146.09 158.61 145.68 160.32 146.47 161.87 C 148.42 167.02 151.39 171.77 155.39 175.57 C 152.27 176.99 148.33 177.84 147.22 181.59 C 142.63 178.76 138.34 175.33 134.98 171.08 C 132.74 168.07 131.02 164.72 128.98 161.57 Z"
     id="path66"
     fill="#f6de81" />
  <path
     d=" M 202.13 168.85 C 205.06 165.11 207.95 161.33 211.15 157.81 C 211.01 165.85 211.24 173.89 211.13 181.93 C 211.09 185.16 210.99 188.38 210.87 191.61 C 186.62 191.84 162.36 191.69 138.10 191.77 C 133.88 191.72 129.65 191.70 125.43 191.64 L 124.74 190.95 C 128.32 190.83 132.00 191.28 135.49 190.34 C 139.64 187.63 143.17 184.01 147.70 181.86 C 159.41 188.32 174.07 188.11 185.93 182.16 C 192.48 178.60 197.81 173.13 201.75 166.85 C 201.85 167.35 202.04 168.35 202.13 168.85 Z"
     id="path68"
     fill="#a5bade" />
  <path
     d=" M 159.36 171.15 C 161.94 176.77 167.92 180.09 174.04 179.66 C 179.64 179.97 183.62 175.26 186.47 171.07 C 187.99 172.17 189.53 173.28 191.05 174.39 C 190.27 174.53 189.49 174.66 188.72 174.80 C 187.79 177.75 185.60 179.97 183.28 181.90 C 183.95 181.96 185.27 182.10 185.93 182.16 C 174.07 188.11 159.41 188.32 147.70 181.86 L 147.22 181.59 C 148.33 177.84 152.27 176.99 155.39 175.57 L 155.63 175.32 C 156.91 173.96 158.14 172.57 159.36 171.15 Z"
     id="path70"
     fill="#f7e38f" />
  <path
     d=" M 211.13 181.93 C 211.84 181.90 213.27 181.85 213.98 181.82 C 214.17 186.17 214.19 190.53 213.91 194.88 C 193.26 195.11 172.63 194.72 151.99 194.63 C 146.09 194.58 140.19 195.32 134.30 194.70 C 135.60 193.76 136.85 192.76 138.10 191.77 C 162.36 191.69 186.62 191.84 210.87 191.61 C 210.99 188.38 211.09 185.16 211.13 181.93 Z"
     id="path72"
     fill="#bfa895" />
  <path
     d=" M 33.73 191.97 C 64.28 191.39 94.86 192.01 125.43 191.64 C 129.65 191.70 133.88 191.72 138.10 191.77 C 136.85 192.76 135.60 193.76 134.30 194.70 C 128.68 195.61 122.89 195.13 117.21 195.07 L 116.63 194.65 C 114.06 192.05 110.26 192.92 106.99 192.84 C 86.33 192.88 65.66 192.83 45.00 192.84 C 41.25 192.70 37.27 193.56 33.73 191.97 Z"
     id="path74"
     fill="#ad967f" />
</svg>
