<?xml version="1.0" encoding="UTF-8" standalone="no"?>
<!-- Created with Inkscape (http://www.inkscape.org/) -->

<svg
   xmlns:dc="http://purl.org/dc/elements/1.1/"
   xmlns:cc="http://creativecommons.org/ns#"
   xmlns:rdf="http://www.w3.org/1999/02/22-rdf-syntax-ns#"
   xmlns:svg="http://www.w3.org/2000/svg"
   xmlns="http://www.w3.org/2000/svg"
   xmlns:sodipodi="http://sodipodi.sourceforge.net/DTD/sodipodi-0.dtd"
   xmlns:inkscape="http://www.inkscape.org/namespaces/inkscape"
   width="128"
   height="128"
   id="svg3949"
   version="1.1"
   inkscape:version="0.48.2 r9819"
   sodipodi:docname="new.svg">
  <defs
     id="defs3951">
    <clipPath
       id="clipPath980"
       clipPathUnits="userSpaceOnUse">
      <path
         id="path982"
         d="m 5.38916,28.1929 21.80814,0 0,-24.32864 -21.80814,0 0,24.32864 z"
         inkscape:connector-curvature="0" />
    </clipPath>
    <clipPath
       id="clipPath896"
       clipPathUnits="userSpaceOnUse">
      <path
         id="path898"
         d="M 0,32 32,32 32,0 0,0 0,32 z"
         inkscape:connector-curvature="0" />
    </clipPath>
    <clipPath
       id="clipPath838"
       clipPathUnits="userSpaceOnUse">
      <path
         id="path840"
         d="M 0,32 32,32 32,0 0,0 0,32 z"
         inkscape:connector-curvature="0" />
    </clipPath>
    <clipPath
       id="clipPath758"
       clipPathUnits="userSpaceOnUse">
      <path
         id="path760"
         d="M 0,32 32,32 32,0 0,0 0,32 z"
         inkscape:connector-curvature="0" />
    </clipPath>
    <clipPath
       id="clipPath660"
       clipPathUnits="userSpaceOnUse">
      <path
         id="path662"
         d="M 0,32 32,32 32,0 0,0 0,32 z"
         inkscape:connector-curvature="0" />
    </clipPath>
    <clipPath
       id="clipPath582"
       clipPathUnits="userSpaceOnUse">
      <path
         id="path584"
         d="M 0,32 32,32 32,0 0,0 0,32 z"
         inkscape:connector-curvature="0" />
    </clipPath>
    <clipPath
       id="clipPath532"
       clipPathUnits="userSpaceOnUse">
      <path
         id="path534"
         d="M 0,32 32,32 32,0 0,0 0,32 z"
         inkscape:connector-curvature="0" />
    </clipPath>
    <clipPath
       id="clipPath422"
       clipPathUnits="userSpaceOnUse">
      <path
         id="path424"
         d="M 0,32 32,32 32,0 0,0 0,32 z"
         inkscape:connector-curvature="0" />
    </clipPath>
    <clipPath
       id="clipPath274"
       clipPathUnits="userSpaceOnUse">
      <path
         id="path276"
         d="M 0,32 32,32 32,0 0,0 0,32 z"
         inkscape:connector-curvature="0" />
    </clipPath>
    <clipPath
       id="clipPath88"
       clipPathUnits="userSpaceOnUse">
      <path
         id="path90"
         d="M 0,32 32,32 32,0 0,0 0,32 z"
         inkscape:connector-curvature="0" />
    </clipPath>
    <clipPath
       id="clipPath56"
       clipPathUnits="userSpaceOnUse">
      <path
         id="path58"
         d="M 0,32 32,32 32,0 0,0 0,32 z"
         inkscape:connector-curvature="0" />
    </clipPath>
    <clipPath
       id="clipPath46"
       clipPathUnits="userSpaceOnUse">
      <path
         id="path48"
         d="M 0,32 32,32 32,0 0,0 0,32 z"
         inkscape:connector-curvature="0" />
    </clipPath>
    <clipPath
       id="clipPath16"
       clipPathUnits="userSpaceOnUse">
      <path
         id="path18"
         d="M 0,32 32,32 32,0 0,0 0,32 z"
         inkscape:connector-curvature="0" />
    </clipPath>
  </defs>
  <sodipodi:namedview
     id="base"
     pagecolor="#000000"
     bordercolor="#666666"
     borderopacity="1.0"
     inkscape:pageopacity="0"
     inkscape:pageshadow="2"
     inkscape:zoom="5.609375"
     inkscape:cx="32.445682"
     inkscape:cy="64"
     inkscape:document-units="px"
     inkscape:current-layer="g10"
     showgrid="false"
     inkscape:window-width="1680"
     inkscape:window-height="936"
     inkscape:window-x="0"
     inkscape:window-y="0"
     inkscape:window-maximized="1" />
  <metadata
     id="metadata3954">
    <rdf:RDF>
      <cc:Work
         rdf:about="">
        <dc:format>image/svg+xml</dc:format>
        <dc:type
           rdf:resource="http://purl.org/dc/dcmitype/StillImage" />
        <dc:title></dc:title>
      </cc:Work>
    </rdf:RDF>
  </metadata>
  <g
     inkscape:label="Layer 1"
     inkscape:groupmode="layer"
     id="layer1"
     transform="translate(0,-924.36218)">
    <g
       style="font-size:64px;font-style:normal;font-variant:normal;font-weight:bold;font-stretch:normal;line-height:125%;letter-spacing:0px;word-spacing:0px;fill:#000000;fill-opacity:1;stroke:none;font-family:Averia Sans;-inkscape-font-specification:Averia Sans Bold"
       id="text4608"
       transform="matrix(-2.2598425,0,0,1,156.47244,2)" />
    <g
       transform="matrix(4.4272799,0,0,-4.4272799,65.248914,1036.3622)"
       inkscape:label="Action_Bar_Icons"
       id="g10"
       style="fill:#ff0000">
      <path
         id="path576"
         style="fill:#333333;fill-opacity:1;fill-rule:nonzero;stroke:none;opacity:0.6"
         d="m -10.629857,18.912614 0,-11.5454207 c 4.4573366,0 8.9146639,0 13.3720006,0 l 0,11.5454207 -5.9064408,0 -0.051163,-7.35649 c -0.485566,0 -0.9711319,0 -1.4566979,0 l -0.051163,7.35649 z m 11.7047649,2.771133 -4.6773478,-0.02277 0.3641697,-2.031405 5.9804138,-0.01137 z m -10.0375293,0 -1.6672356,-2.065547 5.9804137,0.01137 0.3641792,2.031404 z m 13.651886,-12.17252 0,-4.1528543 -4.09115465,0 0,-1.25962 4.09115465,0 0,-4.0987479806781 1.2586708,0 0,4.0987479806781 4.1177316,0 0,1.25962 -4.1177316,0 0,4.1528543 z"
         inkscape:connector-curvature="0" />
    </g>
  </g>
</svg>
